# AST/ASF file generated using VICON BodyLanguage
# -----------------------------------------------
:version 1.10
:name VICON
:units
  mass 1.0
  length 0.45
  angle deg
:documentation
   .ast/.asf automatically generated from VICON data using
   VICON BodyBuilder and BodyLanguage model FoxedUp or BRILLIANT.MOD
:root
   order TX TY TZ RX RY RZ
   axis XYZ
   position 0 0 0  
   orientation 0 0 0 
:bonedata
  begin
     id 1 
     name lhipjoint
     direction 0.522423 -0.726805 0.445902 
     length 2.25074 
     axis 0 0 0  XYZ
  end
  begin
     id 2 
     name lfemur
     direction 0.34202 -0.939693 0  
     length 6.54609  
     axis 0 0 20  XYZ
    dof rx ry rz
    limits (-160.0 20.0)
           (-70.0 70.0)
           (-60.0 70.0)
  end
  begin
     id 3 
     name ltibia
     direction 0.34202 -0.939693 0   
     length 7.7528   
     axis 0 0 20   XYZ
    dof rx
    limits (-10.0 170.0)
  end
  begin
     id 4 
     name lfoot
     direction 0.143696 -0.394801 0.90746   
     length 1.73269   
     axis -90 7.62852e-016 20   XYZ
    dof rx rz
    limits (-45.0 90.0)
           (-70.0 20.0)
  end
  begin
     id 5 
     name ltoes
     direction 1.53633e-011 -4.21912e-011 1   
     length 0.858383   
     axis -90 7.62852e-016 20   XYZ
    dof rx
    limits (-90.0 20.0)
  end
  begin
     id 6 
     name rhipjoint
     direction -0.515943 -0.73016 0.447961   
     length 2.2404  
     axis 0 0 0  XYZ 
  end
  begin
     id 7 
     name rfemur
     direction -0.34202 -0.939693 0   
     length 6.84377   
     axis 0 0 -20   XYZ
    dof rx ry rz
    limits (-160.0 20.0)
           (-70.0 70.0)
           (-70.0 60.0)
  end
  begin
     id 8 
     name rtibia
     direction -0.34202 -0.939693 0   
     length 7.57596   
     axis 0 0 -20   XYZ
    dof rx
    limits (-10.0 170.0)
 end
 begin
     id 9 
     name rfoot
     direction -0.0999372 -0.274575 0.956358   
     length 1.78783  
     axis -90 -7.62852e-016 -20   XYZ
    dof rx rz
    limits (-45.0 90.0)
           (-20.0 70.0)
  end
  begin
     id 10 
     name rtoes
     direction -1.53535e-011 -4.21895e-011 1   
     length 0.898614   
     axis -90 -7.62852e-016 -20   XYZ
    dof rx
    limits (-90.0 20.0)
  end
  begin
     id 11 
     name lowerback
     direction -0.011775 0.996164 -0.0867116   
     length 1.91499   
     axis 0 0 0   XYZ
    dof rx ry rz
    limits (-20.0 45.0)
           (-30.0 30.0)
           (-30.0 30.0)
  end
  begin
     id 12 
     name upperback
     direction -0.00189771 0.999673 -0.0254833   
     length 1.92213   
     axis 0 0 0   XYZ
    dof rx ry rz
    limits (-20.0 45.0)
           (-30.0 30.0)
           (-30.0 30.0)
  end
  begin
     id 13 
     name thorax
     direction 0.00335995 0.999878 0.0152401   
     length 1.93138   
     axis 0 0 0   XYZ
    dof rx ry rz
    limits (-20.0 45.0)
           (-30.0 30.0)
           (-30.0 30.0)
  end
  begin
     id 14 
     name lowerneck
     direction 0.00233191 0.998509 0.0545404   
     length 1.59408   
     axis 0 0 0   XYZ
    dof rx ry rz
    limits (-20.0 45.0)
           (-30.0 30.0)
           (-30.0 30.0)
  end
  begin
     id 15 
     name upperneck
     direction 0.07881 0.9956 -0.0506934   
     length 1.59344   
     axis 0 0 0   XYZ
    dof rx ry rz
    limits (-20.0 45.0)
           (-30.0 30.0)
           (-30.0 30.0)
  end
  begin
     id 16
     name head
     direction 0.0261681 0.999378 -0.0236299  
     length 1.60935  
     axis 0 0 0   XYZ
    dof rx ry rz
    limits (-20.0 45.0)
           (-30.0 30.0)
           (-30.0 30.0)
  end
  begin
     id 17 
     name lclavicle
     direction 0.96643 0.252035 0.0499195  
     length 3.82153  
     axis 0 0 0   XYZ
    dof ry rz
    limits (-20.0 10.0)
           (0.0 20.0)
  end
  begin
     id 18 
     name lhumerus
     direction 1 -4.48967e-011 -2.01614e-018   
     length 4.87796   
     axis 180 -30 -90   XYZ
    dof rx ry rz
    limits (-60.0 90.0)
           (-90.0 90.0)
           (-90.0 90.0)
  end
  begin
     id 19
     name lradius
     direction 1 -4.48958e-011 3.1409e-027   
     length 3.23169   
     axis 180 -30 -90   XYZ
    dof rx
    limits (-10.0 170.0)
  end
  begin
     id 20
     name lwrist
     direction 1 -4.48924e-011 1.0365e-027   
     length 1.61584   
     axis -2.56395e-016 90 90   XYZ
    dof ry
    limits (-180.0 0.0)
 end
  begin
     id 21 
     name lhand
     direction 1 -4.49055e-011 2.09488e-027   
     length 0.731324   
     axis -1.32723e-015 90 90   XYZ
    dof rx rz
    limits (-90.0 90.0)
           (-45.0 45.0)
  end
  begin
     id 22 
     name lfingers
     direction 1 -4.48935e-011 4.14981e-027   
     length 0.589612   
     axis -2.6545e-015 90 90   XYZ
    dof rx
    limits (0.0 90.0)
  end
  begin
     id 23
     name lthumb
     direction 0.707107 -6.35097e-011 0.707107   
     length 0.846569   
     axis -90 45 5.05613e-014   XYZ
    dof rx rz
    limits (-45.0 45.0)
           (-45.0 45.0)
  end
  begin
     id 24 
     name rclavicle
     direction -0.979337 0.201016 0.0221522   
     length 3.73827  
     axis 0 0 0   XYZ 
    dof ry rz
    limits (-10.0 20.0)
           (-20.0 0.0)
  end
  begin
     id 25 
     name rhumerus
     direction -1 -4.48971e-011 1.65907e-027  
     length 4.9143   
     axis 180 30 90   XYZ
    dof rx ry rz
    limits (-90.0 60.0)
           (-90.0 90.0)
           (-90.0 90.0)
  end
  begin
     id 26 
     name rradius
     direction -1 -4.4894e-011 2.17871e-028   
     length 3.29093   
     axis 180 30 90   XYZ
    dof rx
    limits (-10.0 170.0)
  end
  begin
     id 27 
     name rwrist
     direction -1 -4.48971e-011 1.04038e-027   
     length 1.64546   
     axis -2.56395e-016 -90 -90   XYZ
    dof ry
    limits (-180.0 0.0)
  end
  begin
     id 28
     name rhand
     direction -1 -4.49017e-011 2.08843e-027   
     length 0.54512   
     axis -1.32723e-015 -90 -90   XYZ
    dof rx rz
    limits (-90.0 90.0)
           (-45.0 45.0)
  end
  begin
     id 29
     name rfingers
     direction -1 -4.48918e-011 4.1439e-027   
     length 0.43949   
     axis -2.6545e-015 -90 -90   XYZ
    dof rx
    limits (0.0 90.0)
  end
  begin
     id 30
     name rthumb
     direction -0.707107 -6.35065e-011 0.707107   
     length 0.631022   
     axis -90 -45 -5.05613e-014   XYZ
    dof rx rz
    limits (-45.0 45.0)
           (-45.0 45.0)
  end
:hierarchy
  begin
    root lhipjoint rhipjoint lowerback
    lhipjoint lfemur
    lfemur ltibia
    ltibia lfoot
    lfoot ltoes
    rhipjoint rfemur
    rfemur rtibia
    rtibia rfoot
    rfoot rtoes
    lowerback upperback
    upperback thorax
    thorax lowerneck lclavicle rclavicle
    lowerneck upperneck
    upperneck head
    lclavicle lhumerus
    lhumerus lradius
    lradius lwrist
    lwrist lhand lthumb
    lhand lfingers
    rclavicle rhumerus
    rhumerus rradius
    rradius rwrist
    rwrist rhand rthumb
    rhand rfingers
  end

#!OML:ASF H:\BreakDance\Project 1\Capture day 1\Session 1\Male.ASF
:FULLY-SPECIFIED
:DEGREES
181
root 10.8026 15.7763 1.52492 -13.3064 -83.9553 8.95485
lowerback -1.54262 -0.525126 -1.25054
upperback 4.55991 -0.652935 -1.26999
thorax 5.58147 -0.376381 -0.660264
lowerneck 3.49344 0.934632 -0.0744298
upperneck 7.22334 0.803675 5.38305
head 1.64298 0.41393 1.70767
rclavicle -3.72721e-015 3.18055e-015
rhumerus -43.0599 20.6288 -89.346
rradius 63.5991
rwrist -1.35277
rhand -9.52524 -31.9541
rfingers 7.12502
rthumb 16.4408 -61.2774
lclavicle -3.72721e-015 3.18055e-015
lhumerus -44.1055 -23.8968 102.037
lradius 80.8215
lwrist -0.801326
lhand 13.7709 -25.7477
lfingers 7.12502
lthumb 38.6935 -0.140575
rfemur -17.9098 -12.7964 -5.72356
rtibia 53.2667
rfoot -2.03905 -1.21542
rtoes 31.9322
lfemur -24.314 7.95809 -14.4327
ltibia 57.2742
lfoot -22.2412 0.188055
ltoes -33.8545
182
root 10.833 15.7355 1.62071 -21.1343 -84.8497 16.8157
lowerback -1.45718 -0.332483 -1.81282
upperback 4.58494 -0.37182 -1.3651
thorax 5.5635 -0.261329 -0.425929
lowerneck 3.53922 1.00461 -0.123138
upperneck 7.87391 0.841828 5.46698
head 1.8439 0.435203 1.75139
rclavicle -1.89342e-014 -7.95139e-016
rhumerus -41.2913 21.0283 -89.0309
rradius 62.7798
rwrist -1.04207
rhand -9.42467 -31.5068
rfingers 7.12502
rthumb 16.5376 -60.822
lclavicle -1.89342e-014 -7.95139e-016
lhumerus -43.9181 -23.8451 102.306
lradius 81.2292
lwrist -0.572369
lhand 14.2787 -25.7285
lfingers 7.12502
lthumb 39.1723 -0.25807
rfemur -19.7756 -11.8631 -6.55191
rtibia 54.2806
rfoot -1.21306 -0.90933
rtoes 30.6334
lfemur -24.3326 9.03395 -15.1344
ltibia 57.5837
lfoot -22.6771 -0.330265
ltoes -33.5407
183
root 10.8628 15.6908 1.71215 -32.2068 -85.5556 27.9284
lowerback -1.37361 -0.15046 -2.48788
upperback 4.61487 -0.101769 -1.46293
thorax 5.54866 -0.157128 -0.132867
lowerneck 3.53815 1.08764 -0.233824
upperneck 8.52819 0.890081 5.61168
head 2.05575 0.461059 1.82732
rclavicle 1.02126e-014 -1.31198e-014
rhumerus -39.3987 21.4388 -88.7495
rradius 61.9258
rwrist -0.571073
rhand -9.44878 -31.1161
rfingers 7.12502
rthumb 16.5144 -60.4333
lclavicle 1.02126e-014 -1.31198e-014
lhumerus -43.7015 -23.8876 102.541
lradius 81.6721
lwrist -0.352248
lhand 14.6732 -25.6868
lfingers 7.12502
lthumb 39.544 -0.324739
rfemur -21.5512 -10.8863 -7.37372
rtibia 54.9235
rfoot -0.846791 -0.664483
rtoes 29.1638
lfemur -24.4068 10.1195 -15.8801
ltibia 57.9299
lfoot -23.1784 -0.965781
ltoes -33.3326
184
root 10.893 15.6426 1.79934 -45.6183 -85.9646 41.3649
lowerback -1.26095 -0.000300798 -3.22538
upperback 4.66305 0.124495 -1.55003
thorax 5.53322 -0.0784049 0.202538
lowerneck 3.54476 1.15587 -0.354479
upperneck 9.10776 0.923322 5.73802
head 2.24408 0.477712 1.89886
rclavicle 5.09386e-015 6.75868e-015
rhumerus -37.3738 21.8595 -88.5009
rradius 61.0437
rwrist 0.0450533
rhand -9.59516 -30.8598
rfingers 7.12502
rthumb 16.3735 -60.1886
lclavicle 5.09386e-015 6.75868e-015
lhumerus -43.4413 -24.0287 102.743
lradius 82.1509
lwrist -0.205111
lhand 14.8749 -25.6464
lfingers 7.12502
lthumb 39.7339 -0.340592
rfemur -23.1359 -9.95513 -8.14827
rtibia 55.1007
rfoot -0.939447 -0.531622
rtoes 27.8705
lfemur -24.5437 11.1351 -16.6355
ltibia 58.3293
lfoot -23.7028 -1.64891
ltoes -33.1195
185
root 10.9243 15.5919 1.88281 -58.5491 -86.0731 54.2926
lowerback -1.08546 0.102465 -3.95294
upperback 4.73751 0.280459 -1.61625
thorax 5.5081 -0.0354434 0.548623
lowerneck 3.5384 1.20607 -0.491209
upperneck 9.6031 0.938246 5.85438
head 2.40895 0.48398 1.96956
rclavicle 6.41081e-015 3.57812e-015
rhumerus -35.2112 22.2788 -88.2882
rradius 60.1251
rwrist 0.785932
rhand -9.84339 -30.7518
rfingers 7.12502
rthumb 16.1345 -60.1003
lclavicle 6.41081e-015 3.57812e-015
lhumerus -43.1266 -24.2629 102.898
lradius 82.668
lwrist -0.212116
lhand 14.8146 -25.6525
lfingers 7.12502
lthumb 39.6771 -0.329859
rfemur -24.4517 -9.12655 -8.81843
rtibia 54.7535
rfoot -1.44948 -0.556455
rtoes 26.9834
lfemur -24.7474 12.007 -17.3568
ltibia 58.7876
lfoot -24.2234 -2.31268
ltoes -32.7655
186
root 10.9573 15.5395 1.96318 -68.3093 -85.9938 64.0185
lowerback -0.82637 0.149687 -4.60211
upperback 4.83551 0.35016 -1.65659
thorax 5.46153 -0.0328887 0.871647
lowerneck 3.49683 1.24473 -0.660222
upperneck 10.0283 0.940711 5.99177
head 2.55838 0.483533 2.05288
rclavicle 2.16178e-015 9.14409e-015
rhumerus -32.9438 22.6811 -88.1237
rradius 59.1712
rwrist 1.612
rhand -10.1869 -30.7637
rfingers 7.12502
rthumb 15.8037 -60.1386
lclavicle 2.16178e-015 9.14409e-015
lhumerus -42.7424 -24.5894 102.995
lradius 83.2041
lwrist -0.396131
lhand 14.4396 -25.723
lfingers 7.12502
lthumb 39.3239 -0.296525
rfemur -25.4588 -8.42106 -9.34028
rtibia 53.8724
rfoot -2.29479 -0.746068
rtoes 26.6925
lfemur -25.0086 12.6751 -18.0071
ltibia 59.2968
lfoot -24.731 -2.83933
ltoes -32.2095
187
root 10.9924 15.4861 2.04161 -74.2076 -85.8703 69.8657
lowerback -0.482895 0.146761 -5.10989
upperback 4.94387 0.33788 -1.67255
thorax 5.38135 -0.064929 1.136
lowerneck 3.44702 1.266 -0.820977
upperneck 10.3643 0.927764 6.11745
head 2.68097 0.47516 2.12994
rclavicle 5.59082e-015 1.63003e-014
rhumerus -30.6286 23.044 -88.02
rradius 58.1883
rwrist 2.48065
rhand -10.6108 -30.8617
rfingers 7.12502
rthumb 15.3954 -60.2685
lclavicle 5.59082e-015 1.63003e-014
lhumerus -42.2711 -25.0202 103.03
lradius 83.71
lwrist -0.733577
lhand 13.6865 -25.8978
lfingers 7.12502
lthumb 38.6139 -0.268233
rfemur -26.1767 -7.82705 -9.68946
rtibia 52.4965
rfoot -3.36583 -1.09992
rtoes 26.8286
lfemur -25.3218 13.1092 -18.5715
ltibia 59.8367
lfoot -25.2141 -2.95386
ltoes -31.6012
188
root 11.0297 15.4328 2.1189 -76.9318 -85.8107 72.546
lowerback -0.0667695 0.106788 -5.43652
upperback 5.04515 0.260924 -1.65631
thorax 5.25618 -0.120262 1.32988
lowerneck 3.41606 1.26549 -0.970641
upperneck 10.5957 0.896894 6.21269
head 2.76615 0.456906 2.19298
rclavicle 2.41026e-015 9.93923e-016
rhumerus -28.3237 23.365 -87.9779
rradius 57.1838
rwrist 3.35113
rhand -11.0656 -31.0212
rfingers 7.12502
rthumb 14.9573 -60.4611
lclavicle 2.41026e-015 9.93923e-016
lhumerus -41.7051 -25.5452 103.014
lradius 84.1428
lwrist -1.18018
lhand 12.5272 -26.2059
lfingers 7.12502
lthumb 37.5192 -0.277476
rfemur -26.6713 -7.28787 -9.84208
rtibia 50.704
rfoot -4.5342 -1.64933
rtoes 27.1123
lfemur -25.6807 13.3235 -19.0354
ltibia 60.3716
lfoot -25.7141 -2.63659
ltoes -30.9849
189
root 11.069 15.3814 2.19473 -77.4769 -85.8574 73.0759
lowerback 0.391589 0.047689 -5.59301
upperback 5.12541 0.147358 -1.59835
thorax 5.08716 -0.185027 1.47186
lowerneck 3.43056 1.24387 -1.13271
upperneck 10.7222 0.849062 6.27766
head 2.80855 0.427952 2.2456
rclavicle 5.66536e-015 1.5704e-014
rhumerus -26.103 23.6496 -88.0007
rradius 56.1844
rwrist 4.18325
rhand -11.5318 -31.2115
rfingers 7.12502
rthumb 14.5082 -60.6842
lclavicle 5.66536e-015 1.5704e-014
lhumerus -41.0539 -26.1386 102.968
lradius 84.4855
lwrist -1.67161
lhand 11.0409 -26.6497
lfingers 7.12502
lthumb 36.1129 -0.360997
rfemur -27.0252 -6.72072 -9.79855
rtibia 48.6015
rfoot -5.69328 -2.4023
rtoes 27.5476
lfemur -26.0651 13.3677 -19.3943
ltibia 60.8543
lfoot -26.2753 -1.94369
ltoes -30.4602
190
root 11.1095 15.3348 2.2685 -76.7109 -85.9892 72.352
lowerback 0.835222 -0.00698711 -5.62779
upperback 5.18023 0.0368481 -1.51129
thorax 4.89957 -0.24187 1.57786
lowerneck 3.48512 1.20251 -1.2903
upperneck 10.7571 0.785614 6.30781
head 2.81334 0.389761 2.28342
rclavicle 1.04362e-015 -5.96354e-016
rhumerus -24.0275 23.8779 -88.1051
rradius 55.2277
rwrist 4.937
rhand -12.0232 -31.4103
rfingers 7.12502
rthumb 14.0347 -60.9164
lclavicle 1.04362e-015 -5.96354e-016
lhumerus -40.3283 -26.7961 102.894
lradius 84.7403
lwrist -2.13426
lhand 9.31974 -27.2291
lfingers 7.12502
lthumb 34.4809 -0.553406
rfemur -27.3336 -6.05976 -9.6017
rtibia 46.3086
rfoot -6.78974 -3.33575
rtoes 28.1176
lfemur -26.4645 13.3083 -19.6857
ltibia 61.2326
lfoot -26.9265 -1.05407
ltoes -30.1121
